<svg xmlns="http://www.w3.org/2000/svg" width="512" height="512" viewBox="0 0 512 512">
<g>
<path d="M 404.28 494.34 C391.81,498.00 378.52,496.94 367.13,491.36 C361.82,488.76 343.74,474.54 293.50,433.44 C280.30,422.64 267.70,412.95 265.50,411.92 C260.49,409.57 252.69,409.51 247.74,411.78 C244.08,413.45 233.52,421.83 179.61,465.79 C145.42,493.67 139.07,496.85 119.73,495.75 C111.86,495.30 109.96,494.77 101.38,490.62 C85.41,482.90 75.27,470.73 71.51,454.76 C69.25,445.20 69.28,66.66 71.54,57.09 C75.72,39.36 89.84,24.26 107.38,18.74 L 114.50 16.50 L 256.50 16.50 C391.45,16.50 398.80,16.59 404.50,18.34 C423.91,24.28 439.10,41.79 441.95,61.51 C443.37,71.31 443.36,442.17 441.94,451.00 C441.35,454.72 439.18,461.06 436.88,465.84 C430.33,479.42 417.79,490.38 404.28,494.34 ZM 113.94 461.25 C120.58,464.62 124.99,464.71 131.50,461.59 C134.25,460.27 147.07,450.55 160.00,439.99 C220.68,390.39 225.66,386.49 232.56,383.12 C244.63,377.24 255.62,375.79 268.12,378.44 C278.41,380.62 285.09,384.68 304.50,400.56 C340.49,430.00 368.35,452.60 374.28,457.17 C384.19,464.81 392.61,465.68 401.24,459.97 C403.63,458.38 406.69,455.16 408.04,452.79 L 410.50 448.50 L 410.78 259.00 C410.98,124.54 410.75,68.19 409.98,65.00 C408.43,58.62 404.68,53.40 399.75,50.77 L 395.50 48.50 L 117.50 48.50 L 113.04 51.00 C110.59,52.38 107.22,55.45 105.54,57.84 L 102.50 62.17 L 102.50 449.83 L 105.51 454.16 C107.48,457.00 110.38,459.45 113.94,461.25 Z" fill="rgb(0,0,0)"/>
<path d="M 0.00 256.00 L 0.00 0.00 L 256.00 0.00 L 512.00 0.00 L 512.00 256.00 L 512.00 512.00 L 256.00 512.00 L 0.00 512.00 L 0.00 256.00 ZM 404.28 494.34 C417.79,490.38 430.33,479.42 436.88,465.84 C439.18,461.06 441.35,454.72 441.94,451.00 C443.36,442.17 443.37,71.31 441.95,61.51 C439.10,41.79 423.91,24.28 404.50,18.34 C398.80,16.59 391.45,16.50 256.50,16.50 L 114.50 16.50 L 107.38 18.74 C89.84,24.26 75.72,39.36 71.54,57.09 C69.28,66.66 69.25,445.20 71.51,454.76 C75.27,470.73 85.41,482.90 101.38,490.62 C109.96,494.77 111.86,495.30 119.73,495.75 C139.07,496.85 145.42,493.67 179.61,465.79 C233.52,421.83 244.08,413.45 247.74,411.78 C252.69,409.51 260.49,409.57 265.50,411.92 C267.70,412.95 280.30,422.64 293.50,433.44 C343.74,474.54 361.82,488.76 367.13,491.36 C378.52,496.94 391.81,498.00 404.28,494.34 ZM 113.94 461.25 C110.38,459.45 107.48,457.00 105.51,454.16 L 102.50 449.83 L 102.50 256.00 L 102.50 62.17 L 105.54 57.84 C107.22,55.45 110.59,52.38 113.04,51.00 L 117.50 48.50 L 256.50 48.50 L 395.50 48.50 L 399.75 50.77 C404.68,53.40 408.43,58.62 409.98,65.00 C410.75,68.19 410.98,124.54 410.78,259.00 L 410.50 448.50 L 408.04 452.79 C406.69,455.16 403.63,458.38 401.24,459.97 C392.61,465.68 384.19,464.81 374.28,457.17 C368.35,452.60 340.49,430.00 304.50,400.56 C285.09,384.68 278.41,380.62 268.12,378.44 C255.62,375.79 244.63,377.24 232.56,383.12 C225.66,386.49 220.68,390.39 160.00,439.99 C147.07,450.55 134.25,460.27 131.50,461.59 C124.99,464.71 120.58,464.62 113.94,461.25 Z" fill="rgb(254,254,254)"/>
</g>
</svg>