<svg xmlns="http://www.w3.org/2000/svg" width="512" height="512" viewBox="0 0 512 512">
<g>
<path d="M 482.18 392.34 L 477.50 394.50 L 258.00 394.69 L 244.85 394.70 C43.25,394.87 35.44,394.88 29.27,391.69 C28.89,391.49 28.52,391.28 28.11,391.06 C23.60,388.64 16.82,381.58 14.16,376.54 L 11.50 371.50 L 11.50 268.50 L 14.16 263.50 C17.69,256.89 23.23,251.68 30.10,248.55 L 35.71 245.99 L 479.50 246.50 L 484.00 248.84 C490.57,252.24 495.46,257.42 498.67,264.37 L 501.50 270.50 L 501.50 369.50 L 498.61 375.75 C495.31,382.90 489.15,389.11 482.18,392.34 ZM 40.44 372.93 C44.92,374.23 467.52,374.26 472.20,372.96 C474.24,372.39 476.83,370.76 477.95,369.33 C479.95,366.79 480.00,365.56 480.00,319.79 L 480.00 272.85 L 477.08 269.92 C474.36,267.21 473.62,267.00 466.58,267.00 L 459.00 267.00 L 459.00 283.35 C459.00,292.43 458.52,301.07 457.93,302.78 C455.51,309.70 446.80,311.42 441.11,306.10 L 438.00 303.20 L 438.00 267.00 L 416.00 267.00 L 416.00 284.78 C416.00,304.50 415.59,306.02 409.52,308.56 C404.81,310.52 399.96,308.81 396.69,304.03 C395.26,301.94 395.00,298.85 395.00,284.28 L 395.00 267.00 L 374.00 267.00 L 374.00 283.25 C374.00,301.99 373.06,305.25 366.83,308.30 C363.55,309.90 362.79,309.94 359.83,308.68 C352.84,305.73 352.53,304.79 352.19,284.90 L 351.87 267.00 L 331.00 267.00 L 331.00 283.35 C331.00,292.43 330.52,301.07 329.93,302.78 C327.51,309.70 318.80,311.42 313.11,306.10 L 310.00 303.20 L 310.00 267.00 L 288.00 267.00 L 288.00 284.78 C288.00,304.50 287.59,306.02 281.52,308.56 C276.81,310.52 271.96,308.81 268.69,304.03 C267.26,301.94 267.00,298.85 267.00,284.28 L 267.00 267.00 L 246.00 267.00 L 246.00 283.25 C246.00,301.99 245.06,305.25 238.83,308.30 C235.55,309.90 234.79,309.94 231.83,308.68 C224.84,305.73 224.53,304.79 224.19,284.90 L 223.87 267.00 L 203.00 267.00 L 203.00 283.35 C203.00,292.43 202.52,301.07 201.93,302.78 C199.51,309.70 190.80,311.42 185.11,306.10 L 182.00 303.20 L 182.00 267.00 L 160.00 267.00 L 160.00 284.78 C160.00,304.50 159.59,306.02 153.52,308.56 C148.81,310.52 143.96,308.81 140.69,304.03 C139.26,301.94 139.00,298.85 139.00,284.28 L 139.00 267.00 L 118.00 267.00 L 118.00 283.25 C118.00,301.99 117.06,305.25 110.83,308.30 C107.55,309.90 106.79,309.94 103.83,308.68 C96.84,305.73 96.53,304.79 96.19,284.90 L 95.87 267.00 L 75.00 267.00 L 75.00 283.35 C75.00,292.43 74.52,301.07 73.93,302.78 C71.51,309.70 62.80,311.42 57.11,306.10 L 54.00 303.20 L 54.00 267.00 L 46.52 267.00 C39.66,267.00 38.76,267.24 35.77,269.92 L 32.50 272.84 L 32.50 366.84 L 34.94 369.44 C36.29,370.87 38.76,372.44 40.44,372.93 ZM 70.89 221.44 C66.79,224.89 62.37,224.79 57.40,221.13 C51.36,216.67 12.36,176.70 11.54,174.12 C9.68,168.25 11.14,166.31 35.80,141.72 L 59.60 118.00 L 64.34 118.00 C69.64,118.00 73.39,120.72 74.57,125.41 C75.84,130.47 73.94,133.39 60.72,146.75 L 47.60 160.00 L 465.41 160.00 L 451.70 146.17 C438.42,132.76 438.00,132.21 438.00,128.09 C438.00,121.87 442.07,118.00 448.62,118.00 L 453.40 118.00 L 476.69 141.22 C501.69,166.12 503.22,168.23 500.66,174.16 C499.84,176.05 489.02,187.63 475.81,200.75 C454.77,221.65 452.07,224.00 449.11,224.00 C442.37,224.00 438.00,219.39 438.00,212.29 C438.00,208.98 439.15,207.50 451.20,195.33 L 464.40 182.00 L 48.60 182.00 L 61.17 194.75 C68.09,201.76 74.07,208.55 74.47,209.84 C75.68,213.76 74.15,218.69 70.89,221.44 Z" fill="rgb(0,0,0)"/>
<path d="M 0.00 256.00 L 0.00 0.00 L 256.00 0.00 L 512.00 0.00 L 512.00 256.00 L 512.00 512.00 L 256.00 512.00 L 0.00 512.00 L 0.00 256.00 ZM 482.18 392.34 C489.15,389.11 495.31,382.90 498.61,375.75 L 501.50 369.50 L 501.50 320.00 L 501.50 270.50 L 498.67 264.37 C495.46,257.42 490.57,252.24 484.00,248.84 L 479.50 246.50 L 257.60 246.24 L 35.71 245.99 L 30.10 248.55 C23.23,251.68 17.69,256.89 14.16,263.50 L 11.50 268.50 L 11.50 320.00 L 11.50 371.50 L 14.16 376.54 C16.82,381.58 23.60,388.64 28.11,391.06 C35.35,394.96 30.64,394.88 258.00,394.69 L 477.50 394.50 L 482.18 392.34 ZM 70.89 221.44 C74.15,218.69 75.68,213.76 74.47,209.84 C74.07,208.55 68.09,201.76 61.17,194.75 L 48.60 182.00 L 256.50 182.00 L 464.40 182.00 L 451.20 195.33 C439.15,207.50 438.00,208.98 438.00,212.29 C438.00,219.39 442.37,224.00 449.11,224.00 C452.07,224.00 454.77,221.65 475.81,200.75 C489.02,187.63 499.84,176.05 500.66,174.16 C503.22,168.23 501.69,166.12 476.69,141.22 L 453.40 118.00 L 448.62 118.00 C442.07,118.00 438.00,121.87 438.00,128.09 C438.00,132.21 438.42,132.76 451.70,146.17 L 465.41 160.00 L 256.50 160.00 L 47.60 160.00 L 60.72 146.75 C73.94,133.39 75.84,130.47 74.57,125.41 C73.39,120.72 69.64,118.00 64.34,118.00 L 59.60 118.00 L 35.80 141.72 C11.14,166.31 9.68,168.25 11.54,174.12 C12.36,176.70 51.36,216.67 57.40,221.13 C62.37,224.79 66.79,224.89 70.89,221.44 ZM 40.44 372.93 C38.76,372.44 36.29,370.87 34.94,369.44 L 32.50 366.84 L 32.50 319.84 L 32.50 272.84 L 35.77 269.92 C38.76,267.24 39.66,267.00 46.52,267.00 L 54.00 267.00 L 54.00 285.10 L 54.00 303.20 L 57.11 306.10 C62.80,311.42 71.51,309.70 73.93,302.78 C74.52,301.07 75.00,292.43 75.00,283.35 L 75.00 267.00 L 85.44 267.00 L 95.87 267.00 L 96.19 284.90 C96.53,304.79 96.84,305.73 103.83,308.68 C106.79,309.94 107.55,309.90 110.83,308.30 C117.06,305.25 118.00,301.99 118.00,283.25 L 118.00 267.00 L 128.50 267.00 L 139.00 267.00 L 139.00 284.28 C139.00,298.85 139.26,301.94 140.69,304.03 C143.96,308.81 148.81,310.52 153.52,308.56 C159.59,306.02 160.00,304.50 160.00,284.78 L 160.00 267.00 L 171.00 267.00 L 182.00 267.00 L 182.00 285.10 L 182.00 303.20 L 185.11 306.10 C190.80,311.42 199.51,309.70 201.93,302.78 C202.52,301.07 203.00,292.43 203.00,283.35 L 203.00 267.00 L 213.44 267.00 L 223.87 267.00 L 224.19 284.90 C224.53,304.79 224.84,305.73 231.83,308.68 C234.79,309.94 235.55,309.90 238.83,308.30 C245.06,305.25 246.00,301.99 246.00,283.25 L 246.00 267.00 L 256.50 267.00 L 267.00 267.00 L 267.00 284.28 C267.00,298.85 267.26,301.94 268.69,304.03 C271.96,308.81 276.81,310.52 281.52,308.56 C287.59,306.02 288.00,304.50 288.00,284.78 L 288.00 267.00 L 299.00 267.00 L 310.00 267.00 L 310.00 285.10 L 310.00 303.20 L 313.11 306.10 C318.80,311.42 327.51,309.70 329.93,302.78 C330.52,301.07 331.00,292.43 331.00,283.35 L 331.00 267.00 L 341.44 267.00 L 351.87 267.00 L 352.19 284.90 C352.53,304.79 352.84,305.73 359.83,308.68 C362.79,309.94 363.55,309.90 366.83,308.30 C373.06,305.25 374.00,301.99 374.00,283.25 L 374.00 267.00 L 384.50 267.00 L 395.00 267.00 L 395.00 284.28 C395.00,298.85 395.26,301.94 396.69,304.03 C399.96,308.81 404.81,310.52 409.52,308.56 C415.59,306.02 416.00,304.50 416.00,284.78 L 416.00 267.00 L 427.00 267.00 L 438.00 267.00 L 438.00 285.10 L 438.00 303.20 L 441.11 306.10 C446.80,311.42 455.51,309.70 457.93,302.78 C458.52,301.07 459.00,292.43 459.00,283.35 L 459.00 267.00 L 466.58 267.00 C473.62,267.00 474.36,267.21 477.08,269.92 L 480.00 272.85 L 480.00 319.79 C480.00,365.56 479.95,366.79 477.95,369.33 C476.83,370.76 474.24,372.39 472.20,372.96 C467.52,374.26 44.92,374.23 40.44,372.93 Z" fill="rgb(254,254,254)"/>
</g>
</svg>